# xmcd
#
# Track frame offsets: 
#        150
#        20539
#        36178
#        49863
#        65533
#        84718
#        98763
#        114653
#        126476
#        140177
#        152313
#        170218
#        186190
#        197193
#        208331
#        221949
#        237826
#        248863
#        262703
#        275803
#        289224
#        309649
#
# Disc length: 4328 seconds
#
# Revision: 0
# Processed by: cddbd v1.5.2PL0 Copyright (c) Steve Scherf et al.
# Submitted via: ExactAudioCopy v0.99pb4
#
DISCID=6010e616
DTITLE=Paul Westerberg - It's Mister Soundtrack!
DYEAR=1999
DGENRE=Ambient
TTITLE0=Dyslexic Heart
TTITLE1=Waiting for Somebody
TTITLE2=Seein' Her
TTITLE3=Men Without Ties
TTITLE4=Dice Behind Your Shades (festicle version)
TTITLE5=Can't Hardly Wait (live)
TTITLE6=Left of the Dial (live)
TTITLE7=Another Girl, Another Planet (live)
TTITLE8=Answering Machine (live)
TTITLE9=Daydream Believer (live)
TTITLE10=A Star is Bored
TTITLE11=Backlash
TTITLE12=Let's Do it
TTITLE13=Sunshine
TTITLE14=Stain Yer Blood
TTITLE15=Make Your Own Kind of Music
TTITLE16=I Want My Money Back
TTITLE17=Undone
TTITLE18=Wonderful Copenhagen
TTITLE19=33rd of July
TTITLE20=Whatever Makes You Happy (acoustic version)
TTITLE21=Love Untold (acoustic version)
EXTD=
EXTT0=
EXTT1=
EXTT2=
EXTT3=
EXTT4=
EXTT5=
EXTT6=
EXTT7=
EXTT8=
EXTT9=
EXTT10=
EXTT11=
EXTT12=
EXTT13=
EXTT14=
EXTT15=
EXTT16=
EXTT17=
EXTT18=
EXTT19=
EXTT20=
EXTT21=
PLAYORDER=
